<?xml version="1.0" encoding="UTF-8" standalone="no"?>
<!-- Created with Inkscape (http://www.inkscape.org/) -->

<svg
   xmlns:dc="http://purl.org/dc/elements/1.1/"
   xmlns:cc="http://creativecommons.org/ns#"
   xmlns:rdf="http://www.w3.org/1999/02/22-rdf-syntax-ns#"
   xmlns:svg="http://www.w3.org/2000/svg"
   xmlns="http://www.w3.org/2000/svg"
   xmlns:xlink="http://www.w3.org/1999/xlink"
   xmlns:sodipodi="http://sodipodi.sourceforge.net/DTD/sodipodi-0.dtd"
   xmlns:inkscape="http://www.inkscape.org/namespaces/inkscape"
   version="1.1"
   id="svg18"
   width="3824"
   height="224"
   viewBox="0 0 3824 224"
   sodipodi:docname="Level1.svg"
   inkscape:version="0.92.4 (5da689c313, 2019-01-14)">
  <metadata
     id="metadata24">
    <rdf:RDF>
      <cc:Work
         rdf:about="">
        <dc:format>image/svg+xml</dc:format>
        <dc:type
           rdf:resource="http://purl.org/dc/dcmitype/StillImage" />
        <dc:title />
      </cc:Work>
    </rdf:RDF>
  </metadata>
  <defs
     id="defs22" />
  <sodipodi:namedview
     pagecolor="#ffffff"
     bordercolor="#666666"
     borderopacity="1"
     objecttolerance="10"
     gridtolerance="10"
     guidetolerance="10"
     inkscape:pageopacity="0"
     inkscape:pageshadow="2"
     inkscape:window-width="1920"
     inkscape:window-height="1017"
     id="namedview20"
     showgrid="false"
     inkscape:zoom="2.4080999"
     inkscape:cx="651.6987"
     inkscape:cy="84.481892"
     inkscape:window-x="-8"
     inkscape:window-y="-8"
     inkscape:window-maximized="1"
     inkscape:current-layer="svg18" />
  <image
     sodipodi:absref="D:\School\Howest\Programmeren\praktijk\De_Herdt_Elias_MetalSlug\Resources\Level\Mission1\Mission1_Background1.png"
     xlink:href="Mission1_Background1.png"
     width="3824"
     height="224"
     preserveAspectRatio="none"
     id="image26"
     x="0"
     y="0" />
  <path
     style="fill:none;stroke:#000000;stroke-width:1px;stroke-linecap:butt;stroke-linejoin:miter;stroke-opacity:1"
     d="m 0,186.08305 34.086954,-1.532 53.811427,-8.61748 62.045919,-16.27748 15.31998,8.80899 60.51391,15.51147 51.32193,11.87299 33.12946,1.149 51.13043,-6.31949 60.51392,-14.55399 16.27748,7.277 33.51245,11.10698 63.76941,3.064 151.2848,-2.681 3137.34023,4.21299 L 3824,224 H 0 Z"
     id="path3735"
     inkscape:connector-curvature="0" />
  <path
     style="fill:none;stroke:#000000;stroke-width:0.35062376px;stroke-linecap:butt;stroke-linejoin:miter;stroke-opacity:1"
     d="m 575.64822,160.30122 56.49242,-0.0706 -0.1915,0.32959 -56.30092,0.0942 z"
     id="path3741"
     inkscape:connector-curvature="0" />
  <path
     style="fill:none;stroke:#000000;stroke-width:0.55585235px;stroke-linecap:butt;stroke-linejoin:miter;stroke-opacity:1"
     d="m 609.12542,128.80066 94.53284,0.0454 -0.24943,0.90853 -94.03398,-0.13628 z"
     id="path3743"
     inkscape:connector-curvature="0" />
  <path
     style="fill:none;stroke:#000000;stroke-width:0.50002599px;stroke-linecap:butt;stroke-linejoin:miter;stroke-opacity:1"
     d="m 700.46968,104.21297 140.02268,-0.0918 v 0.91806 l -140.22243,-0.18361 z"
     id="path3745"
     inkscape:connector-curvature="0" />
  <path
     style="fill:none;stroke:#000000;stroke-width:0.528458px;stroke-linecap:butt;stroke-linejoin:miter;stroke-opacity:1"
     d="m 1194.3839,161.64698 74.1104,-0.2674 -0.1915,0.69524 -74.1104,0.21392 z"
     id="path3747"
     inkscape:connector-curvature="0" />
  <path
     style="fill:none;stroke:#000000;stroke-width:0.51773119px;stroke-linecap:butt;stroke-linejoin:miter;stroke-opacity:1"
     d="m 1579.9996,112.12652 h 172.4809 v 0.51178 l -172.865,0.0512 z"
     id="path3755"
     inkscape:connector-curvature="0" />
  <path
     style="fill:none;stroke:#000000;stroke-width:0.76731741px;stroke-linecap:butt;stroke-linejoin:miter;stroke-opacity:1"
     d="m 1291.8187,112.23044 172.3779,-0.0797 v 0.71754 l -172.5133,0.0797 z"
     id="path3761"
     inkscape:connector-curvature="0" />
  <path
     style="fill:none;stroke:#000000;stroke-width:0.58633345px;stroke-linecap:butt;stroke-linejoin:miter;stroke-opacity:1"
     d="m 1496.3796,160.30919 h 62.2753 v 0.30531 l -62.4254,0.10176 z"
     id="path3765"
     inkscape:connector-curvature="0" />
  <path
     style="fill:none;stroke:#000000;stroke-width:1px;stroke-linecap:butt;stroke-linejoin:miter;stroke-opacity:1"
     d="m 2821.8498,100.67254 38.76,3.52364 46.101,-6.753647 53.7356,0.587274 54.91,-4.110916 66.9492,1.761821 74.2902,-1.174547 33.1809,1.174547 -0.5873,1.174547 -31.1255,-1.468184 h -138.0093 l -56.3782,3.817279 -54.3228,-0.587274 -49.0374,7.34092 -38.4664,-3.52364 z"
     id="path3771"
     inkscape:connector-curvature="0" />
</svg>
